<svg width="733" height="140" viewBox="0 0 733 140" fill="none" xmlns="http://www.w3.org/2000/svg">
<path d="M214.48 112.54C209.567 112.54 205.79 111.697 203.15 110.01C200.51 108.323 198.567 106.453 197.32 104.4H195.34V111H181.7V34H195.56V62.71H197.54C198.347 61.39 199.41 60.1433 200.73 58.97C202.123 57.7966 203.92 56.8433 206.12 56.11C208.393 55.3033 211.18 54.9 214.48 54.9C218.88 54.9 222.95 56 226.69 58.2C230.43 60.3266 233.437 63.48 235.71 67.66C237.983 71.84 239.12 76.9 239.12 82.84V84.6C239.12 90.54 237.983 95.6 235.71 99.78C233.437 103.96 230.43 107.15 226.69 109.35C222.95 111.477 218.88 112.54 214.48 112.54ZM210.3 100.44C214.553 100.44 218.11 99.0833 220.97 96.37C223.83 93.5833 225.26 89.55 225.26 84.27V83.17C225.26 77.89 223.83 73.8933 220.97 71.18C218.183 68.3933 214.627 67 210.3 67C206.047 67 202.49 68.3933 199.63 71.18C196.77 73.8933 195.34 77.89 195.34 83.17V84.27C195.34 89.55 196.77 93.5833 199.63 96.37C202.49 99.0833 206.047 100.44 210.3 100.44Z" fill="white"/>
<path d="M272.306 112.54C266.88 112.54 262.003 111.44 257.677 109.24C253.35 107.04 249.94 103.85 247.447 99.67C244.953 95.49 243.706 90.4666 243.706 84.6V82.84C243.706 76.9733 244.953 71.95 247.447 67.77C249.94 63.59 253.35 60.4 257.677 58.2C262.003 56 266.88 54.9 272.306 54.9C277.733 54.9 282.61 56 286.936 58.2C291.263 60.4 294.673 63.59 297.167 67.77C299.66 71.95 300.906 76.9733 300.906 82.84V84.6C300.906 90.4666 299.66 95.49 297.167 99.67C294.673 103.85 291.263 107.04 286.936 109.24C282.61 111.44 277.733 112.54 272.306 112.54ZM272.306 100.22C276.56 100.22 280.08 98.8633 282.867 96.15C285.653 93.3633 287.047 89.4033 287.047 84.27V83.17C287.047 78.0366 285.653 74.1133 282.867 71.4C280.153 68.6133 276.633 67.22 272.306 67.22C268.053 67.22 264.533 68.6133 261.746 71.4C258.96 74.1133 257.566 78.0366 257.566 83.17V84.27C257.566 89.4033 258.96 93.3633 261.746 96.15C264.533 98.8633 268.053 100.22 272.306 100.22Z" fill="white"/>
<path d="M308.2 111V56.44H321.84V62.38H323.82C324.773 60.5466 326.35 58.97 328.55 57.65C330.75 56.2566 333.647 55.56 337.24 55.56C341.127 55.56 344.243 56.33 346.59 57.87C348.937 59.3366 350.733 61.28 351.98 63.7H353.96C355.207 61.3533 356.967 59.41 359.24 57.87C361.513 56.33 364.74 55.56 368.92 55.56C372.293 55.56 375.337 56.2933 378.05 57.76C380.837 59.1533 383.037 61.3166 384.65 64.25C386.337 67.11 387.18 70.74 387.18 75.14V111H373.32V76.13C373.32 73.1233 372.55 70.8866 371.01 69.42C369.47 67.88 367.307 67.11 364.52 67.11C361.367 67.11 358.91 68.1366 357.15 70.19C355.463 72.17 354.62 75.03 354.62 78.77V111H340.76V76.13C340.76 73.1233 339.99 70.8866 338.45 69.42C336.91 67.88 334.747 67.11 331.96 67.11C328.807 67.11 326.35 68.1366 324.59 70.19C322.903 72.17 322.06 75.03 322.06 78.77V111H308.2Z" fill="white"/>
<path d="M429.367 112.54C424.453 112.54 420.677 111.697 418.037 110.01C415.397 108.323 413.453 106.453 412.207 104.4H410.227V111H396.587V34H410.447V62.71H412.427C413.233 61.39 414.297 60.1433 415.617 58.97C417.01 57.7966 418.807 56.8433 421.007 56.11C423.28 55.3033 426.067 54.9 429.367 54.9C433.767 54.9 437.837 56 441.577 58.2C445.317 60.3266 448.323 63.48 450.597 67.66C452.87 71.84 454.007 76.9 454.007 82.84V84.6C454.007 90.54 452.87 95.6 450.597 99.78C448.323 103.96 445.317 107.15 441.577 109.35C437.837 111.477 433.767 112.54 429.367 112.54ZM425.187 100.44C429.44 100.44 432.997 99.0833 435.857 96.37C438.717 93.5833 440.147 89.55 440.147 84.27V83.17C440.147 77.89 438.717 73.8933 435.857 71.18C433.07 68.3933 429.513 67 425.187 67C420.933 67 417.377 68.3933 414.517 71.18C411.657 73.8933 410.227 77.89 410.227 83.17V84.27C410.227 89.55 411.657 93.5833 414.517 96.37C417.377 99.0833 420.933 100.44 425.187 100.44Z" fill="white"/>
<path d="M461.233 111V56.44H475.093V111H461.233ZM468.163 50.06C465.67 50.06 463.543 49.2533 461.783 47.64C460.097 46.0266 459.253 43.9 459.253 41.26C459.253 38.62 460.097 36.4933 461.783 34.88C463.543 33.2666 465.67 32.46 468.163 32.46C470.73 32.46 472.857 33.2666 474.543 34.88C476.23 36.4933 477.073 38.62 477.073 41.26C477.073 43.9 476.23 46.0266 474.543 47.64C472.857 49.2533 470.73 50.06 468.163 50.06Z" fill="white"/>
<path d="M482.312 83.94V82.18C482.312 76.46 483.449 71.5833 485.722 67.55C487.995 63.4433 491.002 60.3266 494.742 58.2C498.555 56 502.699 54.9 507.172 54.9C512.159 54.9 515.935 55.78 518.502 57.54C521.069 59.3 522.939 61.1333 524.112 63.04H526.092V56.44H539.732V120.68C539.732 124.42 538.632 127.39 536.432 129.59C534.232 131.863 531.299 133 527.632 133H491.112V120.9H522.792C524.845 120.9 525.872 119.8 525.872 117.6V103.41H523.892C523.159 104.583 522.132 105.793 520.812 107.04C519.492 108.213 517.732 109.203 515.532 110.01C513.332 110.817 510.545 111.22 507.172 111.22C502.699 111.22 498.555 110.157 494.742 108.03C491.002 105.83 487.995 102.713 485.722 98.68C483.449 94.5733 482.312 89.66 482.312 83.94ZM511.132 99.12C515.385 99.12 518.942 97.7633 521.802 95.05C524.662 92.3366 526.092 88.5233 526.092 83.61V82.51C526.092 77.5233 524.662 73.71 521.802 71.07C519.015 68.3566 515.459 67 511.132 67C506.879 67 503.322 68.3566 500.462 71.07C497.602 73.71 496.172 77.5233 496.172 82.51V83.61C496.172 88.5233 497.602 92.3366 500.462 95.05C503.322 97.7633 506.879 99.12 511.132 99.12Z" fill="white"/>
<path d="M558.288 112.54C555.355 112.54 552.862 111.587 550.808 109.68C548.828 107.7 547.838 105.17 547.838 102.09C547.838 99.01 548.828 96.5166 550.808 94.61C552.862 92.63 555.355 91.64 558.288 91.64C561.295 91.64 563.788 92.63 565.768 94.61C567.748 96.5166 568.738 99.01 568.738 102.09C568.738 105.17 567.748 107.7 565.768 109.68C563.788 111.587 561.295 112.54 558.288 112.54Z" fill="white"/>
<path d="M576.862 111V56.44H590.502V63.59H592.482C593.362 61.6833 595.012 59.8866 597.432 58.2C599.852 56.44 603.519 55.56 608.432 55.56C612.685 55.56 616.389 56.55 619.542 58.53C622.769 60.4366 625.262 63.1133 627.022 66.56C628.782 69.9333 629.662 73.8933 629.662 78.44V111H615.802V79.54C615.802 75.4333 614.776 72.3533 612.722 70.3C610.742 68.2466 607.882 67.22 604.142 67.22C599.889 67.22 596.589 68.65 594.242 71.51C591.895 74.2966 590.722 78.22 590.722 83.28V111H576.862Z" fill="white"/>
<path d="M664.005 112.54C658.579 112.54 653.775 111.403 649.595 109.13C645.489 106.783 642.262 103.52 639.915 99.34C637.642 95.0866 636.505 90.1 636.505 84.38V83.06C636.505 77.34 637.642 72.39 639.915 68.21C642.189 63.9566 645.379 60.6933 649.485 58.42C653.592 56.0733 658.359 54.9 663.785 54.9C669.139 54.9 673.795 56.11 677.755 58.53C681.715 60.8766 684.795 64.1766 686.995 68.43C689.195 72.61 690.295 77.4866 690.295 83.06V87.79H650.585C650.732 91.53 652.125 94.5733 654.765 96.92C657.405 99.2666 660.632 100.44 664.445 100.44C668.332 100.44 671.192 99.5966 673.025 97.91C674.859 96.2233 676.252 94.3533 677.205 92.3L688.535 98.24C687.509 100.147 686.005 102.237 684.025 104.51C682.119 106.71 679.552 108.617 676.325 110.23C673.099 111.77 668.992 112.54 664.005 112.54ZM650.695 77.45H676.215C675.922 74.2966 674.639 71.7666 672.365 69.86C670.165 67.9533 667.269 67 663.675 67C659.935 67 656.965 67.9533 654.765 69.86C652.565 71.7666 651.209 74.2966 650.695 77.45Z" fill="white"/>
<path d="M716.206 111C712.612 111 709.679 109.9 707.405 107.7C705.205 105.427 704.105 102.42 704.105 98.68V67.88H690.465V56.44H704.105V39.5H717.965V56.44H732.925V67.88H717.965V96.26C717.965 98.46 718.992 99.56 721.045 99.56H731.605V111H716.206Z" fill="white"/>
<path d="M140 70C140 108.66 108.66 140 70 140C31.3401 140 0 108.66 0 70C0 31.3401 31.3401 0 70 0C108.66 0 140 31.3401 140 70Z" fill="#FFD506"/>
<path d="M105.547 70.9483L59.1723 120.636C58.6808 121.16 58.0321 121.511 57.3241 121.634C56.616 121.758 55.887 121.647 55.2471 121.32C54.6071 120.993 54.091 120.466 53.7765 119.82C53.462 119.174 53.3663 118.443 53.5037 117.737L59.5739 87.3742L35.7115 78.4138C35.199 78.2221 34.742 77.9065 34.3813 77.4951C34.0206 77.0836 33.7674 76.5893 33.6443 76.0561C33.5213 75.523 33.5323 74.9677 33.6762 74.4398C33.8202 73.9119 34.0926 73.4279 34.4693 73.031L80.8443 23.3435C81.3357 22.8191 81.9844 22.4687 82.6925 22.3452C83.4005 22.2218 84.1296 22.332 84.7695 22.6592C85.4094 22.9864 85.9256 23.5129 86.2401 24.1591C86.5545 24.8054 86.6503 25.5365 86.5128 26.242L80.4261 56.6383L104.289 65.5862C104.797 65.7792 105.251 66.0945 105.608 66.5043C105.966 66.914 106.218 67.4057 106.341 67.9357C106.463 68.4658 106.454 69.0179 106.312 69.5433C106.171 70.0687 105.903 70.5513 105.531 70.9483H105.547Z" fill="black"/>
</svg>
